<?xml version="1.0" encoding="utf-8"?>
<!-- Generator: Adobe Illustrator 27.5.0, SVG Export Plug-In . SVG Version: 6.00 Build 0)  -->
<svg version="1.1" id="Layer_26" xmlns="http://www.w3.org/2000/svg" xmlns:xlink="http://www.w3.org/1999/xlink" x="0px" y="0px"
	 viewBox="0 0 400 400" style="enable-background:new 0 0 400 400;" xml:space="preserve">
<rect style="fill-rule:evenodd;clip-rule:evenodd;fill:#FFFFFF;" width="400" height="400"/>
<g>
	<g>
		<path style="fill:#002046;" d="M111.827,280.171c-0.632,0.272-2.709,0.406-6.229,0.406c-1.495,0-2.467-0.02-2.919-0.059
			c-1.334-0.12-2.232-0.417-2.693-0.889c-0.572-0.582-0.858-2.006-0.858-4.272c0-1.224,0.021-2.115,0.061-2.678
			c0.121-1.655,0.902-2.618,2.347-2.889c0.542-0.1,2.307-0.151,5.296-0.151c1.885,0,2.883,0.007,2.994,0.017
			c1.495,0.1,2.397,0.42,2.709,0.962c0.16,0.281,0.265,0.762,0.316,1.443h5.973v-0.706c0-1.624-0.216-2.879-0.647-3.761
			c-0.552-1.124-1.54-1.9-2.964-2.333c-1.194-0.361-4.479-0.541-9.855-0.541c-4.253,0-7.081,0.266-8.486,0.797
			c-1.775,0.673-2.934,1.926-3.475,3.762c-0.301,1.023-0.452,2.819-0.452,5.387c0,3.31,0.241,5.667,0.722,7.071
			c0.692,2.025,2.372,3.209,5.04,3.551c1.404,0.18,3.445,0.27,6.124,0.27c3.269,0,5.456-0.02,6.56-0.06
			c1.615-0.06,2.833-0.186,3.656-0.376c1.665-0.392,2.789-1.163,3.37-2.316c0.452-0.884,0.677-2.282,0.677-4.198v-0.934h-6.048
			C113.025,278.997,112.619,279.83,111.827,280.171z"/>
		<path style="fill:#002046;" d="M126.676,284.625c1.093,0.522,2.859,0.836,5.296,0.947c0.642,0.029,2.453,0.046,5.432,0.046
			c3.45,0,5.938-0.061,7.462-0.181c3.441-0.271,5.517-1.756,6.229-4.454c0.321-1.213,0.482-3.114,0.482-5.702
			c0-1.173-0.015-2.161-0.045-2.964c-0.051-1.384-0.191-2.482-0.422-3.296c-0.632-2.225-2.257-3.575-4.874-4.046
			c-1.164-0.211-4.358-0.315-9.584-0.315c-2.859,0-5.035,0.074-6.53,0.225c-3.169,0.321-5.15,1.55-5.942,3.686
			c-0.331,0.893-0.537,1.961-0.617,3.204c-0.03,0.472-0.045,1.57-0.045,3.296c0,2.548,0.085,4.282,0.255,5.206
			C124.173,282.453,125.141,283.902,126.676,284.625z M129.986,272.287c0.21-1.123,0.677-1.835,1.398-2.137
			c0.772-0.32,2.819-0.48,6.139-0.48c2.026,0,3.16,0.004,3.4,0.014c1.475,0.061,2.442,0.197,2.903,0.406
			c0.793,0.353,1.274,1.119,1.445,2.303c0.06,0.422,0.09,1.243,0.09,2.467c0,1.596-0.045,2.624-0.136,3.085
			c-0.24,1.224-0.817,1.982-1.73,2.272c-0.812,0.261-3.084,0.391-6.815,0.391c-1.384,0-2.563-0.035-3.536-0.104
			c-1.676-0.12-2.668-0.723-2.979-1.806c-0.21-0.732-0.316-1.967-0.316-3.701C129.851,273.671,129.895,272.769,129.986,272.287z"/>
		<polygon style="fill:#002046;" points="185.428,269.549 185.112,285.407 191.236,285.407 191.236,264.869 181.383,264.869 
			173.924,278.501 166.423,264.869 156.496,264.869 156.496,285.407 162.529,285.407 162.364,269.549 171.331,285.407 
			176.326,285.407 		"/>
		<g>
			<g>
				<path style="fill:#002046;" d="M221.417,272.378c0-1.626-0.15-2.909-0.452-3.852c-0.431-1.354-1.224-2.317-2.377-2.889
					c-0.792-0.392-1.82-0.632-3.084-0.723c-0.432-0.03-1.495-0.046-3.19-0.046h-15.736v20.538h6.229v-5.056h10.05
					c1.415,0,2.538-0.045,3.371-0.135c1.213-0.131,2.172-0.422,2.873-0.873C220.645,278.351,221.417,276.028,221.417,272.378z
					 M214.285,274.965c-0.441,0.262-1.238,0.392-2.392,0.392h-9.088v-5.476h9.088c1.294,0,2.15,0.175,2.571,0.526
					c0.482,0.4,0.723,1.224,0.723,2.467C215.188,273.918,214.887,274.615,214.285,274.965z"/>
			</g>
		</g>
		<path style="fill:#002046;" d="M233.664,264.869l-11.555,20.538h7.077l1.962-3.671h13.265l2.043,3.671h6.825l-11.236-20.538
			H233.664z M233.415,277.464l4.358-8.176l4.473,8.176H233.415z"/>
		<polygon style="fill:#002046;" points="261.978,269.94 274.257,285.407 284.29,285.407 284.29,264.869 278.378,264.869 
			278.544,280.503 266.086,264.869 256.142,264.869 256.142,285.407 262.16,285.407 		"/>
		<polygon style="fill:#002046;" points="309.176,264.869 302.301,273.371 295.364,264.869 287.375,264.869 299.126,278.29 
			299.126,285.407 305.414,285.407 305.414,278.29 317,264.869 		"/>
		<polygon style="fill:#002046;" points="128.326,297.522 125.768,294.387 122.821,294.387 127.155,299.337 127.155,301.962 
			129.475,301.962 129.475,299.337 133.747,294.387 130.862,294.387 		"/>
		<path style="fill:#002046;" d="M144.701,295.919c-0.233-0.821-0.832-1.319-1.798-1.493c-0.429-0.077-1.607-0.116-3.535-0.116
			c-1.054,0-1.857,0.027-2.408,0.083c-1.169,0.118-1.899,0.571-2.192,1.36c-0.122,0.329-0.198,0.723-0.228,1.181
			c-0.011,0.175-0.017,0.58-0.017,1.216c0,0.94,0.031,1.579,0.094,1.92c0.148,0.803,0.505,1.338,1.071,1.604
			c0.403,0.192,1.054,0.309,1.953,0.35c0.236,0.011,0.904,0.016,2.003,0.016c1.273,0,2.19-0.022,2.752-0.065
			c1.269-0.101,2.035-0.648,2.297-1.643c0.118-0.447,0.178-1.148,0.178-2.104c0-0.433-0.006-0.797-0.017-1.093
			C144.838,296.624,144.787,296.218,144.701,295.919z M142.532,299.21c-0.089,0.451-0.302,0.73-0.638,0.837
			c-0.3,0.097-1.138,0.145-2.514,0.145c-0.511,0-0.945-0.013-1.304-0.039c-0.618-0.044-0.984-0.266-1.099-0.665
			c-0.078-0.271-0.117-0.726-0.117-1.365c0-0.488,0.017-0.821,0.05-0.999c0.078-0.414,0.25-0.677,0.516-0.788
			c0.285-0.118,1.039-0.178,2.264-0.178c0.747,0,1.166,0.002,1.254,0.006c0.544,0.022,0.9,0.072,1.071,0.149
			c0.292,0.13,0.47,0.412,0.533,0.85c0.022,0.155,0.033,0.458,0.033,0.91C142.581,298.66,142.565,299.04,142.532,299.21z"/>
		<path style="fill:#002046;" d="M154.08,297.861v0.654c0.003,0.485-0.034,0.842-0.111,1.071c-0.118,0.351-0.438,0.548-0.959,0.588
			c-0.332,0.026-0.913,0.039-1.741,0.039c-0.558,0-0.968-0.017-1.23-0.05c-0.592-0.074-0.932-0.348-1.02-0.821
			c-0.033-0.178-0.05-0.49-0.05-0.938c0-0.004,0-0.034,0-0.089c0-0.066,0-0.132,0-0.194v-3.735h-2.309v4.073
			c0,0.836,0.044,1.454,0.133,1.854c0.218,0.98,0.945,1.529,2.181,1.648c0.462,0.044,1.278,0.066,2.447,0.066
			c1.177,0,1.753,0.003,1.748,0.008c0.674-0.022,1.205-0.094,1.587-0.219c0.825-0.27,1.325-0.775,1.499-1.515
			c0.085-0.362,0.127-1.012,0.127-1.948v-3.968h-2.303V297.861z"/>
		<path style="fill:#002046;" d="M167.863,296.856c0-0.565-0.066-1.021-0.2-1.365c-0.192-0.496-0.588-0.821-1.188-0.977
			c-0.329-0.085-0.871-0.128-1.625-0.128h-6.543v7.575h2.297v-1.915h3.546c0.318,0,0.54,0.01,0.666,0.028
			c0.403,0.06,0.605,0.374,0.605,0.943v0.943h2.336v-1.199c0-0.735-0.183-1.219-0.549-1.448c-0.181-0.114-0.542-0.185-1.082-0.21
			c-0.163-0.008-0.289-0.015-0.378-0.022c0.751-0.107,1.241-0.243,1.471-0.405C167.649,298.374,167.863,297.767,167.863,296.856z
			 M165.155,298.1c-0.152,0.063-0.466,0.095-0.943,0.095h-3.607v-1.948h3.69c0.511,0,0.84,0.057,0.988,0.172
			c0.174,0.133,0.261,0.44,0.261,0.922C165.544,297.739,165.414,297.992,165.155,298.1z"/>
		<polygon style="fill:#002046;" points="180.971,294.387 171.915,294.387 171.915,296.257 175.288,296.257 175.288,301.962 
			177.597,301.962 177.597,296.257 180.971,296.257 		"/>
		<path style="fill:#002046;" d="M184.661,294.387l-4.262,7.575h2.611l0.723-1.355h4.893l0.752,1.355h2.519l-4.145-7.575H184.661z
			 M184.569,299.032l1.608-3.016l1.649,3.016H184.569z"/>
		<path style="fill:#002046;" d="M195.437,296.307c0.181-0.121,0.479-0.183,0.893-0.183l0.733-0.011
			c0.355-0.008,0.654-0.01,0.899-0.006h0.81c0.266,0,0.466,0,0.599,0c0.603,0.011,0.916,0.29,0.938,0.838h2.259
			c0-0.533-0.036-0.938-0.106-1.215c-0.199-0.788-0.834-1.233-1.903-1.332c-0.477-0.045-1.391-0.066-2.741-0.066
			c-1.739,0-2.886,0.071-3.441,0.216c-0.699,0.182-1.163,0.568-1.393,1.16c-0.185,0.477-0.278,1.334-0.278,2.569
			c0,1.11,0.078,1.885,0.233,2.325c0.289,0.817,1.008,1.27,2.159,1.359c0.48,0.037,1.261,0.055,2.342,0.055
			c1.653,0,2.617-0.003,2.891-0.011c1.218-0.032,1.925-0.514,2.12-1.442c0.078-0.366,0.117-0.974,0.117-1.82v-1.049h-5.167v1.415
			h2.919c0.004,0.104,0.005,0.18,0.005,0.228c0,0.311-0.067,0.531-0.203,0.663c-0.135,0.131-0.36,0.214-0.674,0.247
			c-0.141,0.015-0.526,0.022-1.155,0.022c-1.091,0-1.686-0.002-1.787-0.006c-0.699-0.025-1.138-0.209-1.315-0.547
			c-0.115-0.219-0.172-0.676-0.172-1.373c0-0.558,0.011-0.968,0.033-1.229C195.087,296.724,195.215,296.454,195.437,296.307z"/>
		<polygon style="fill:#002046;" points="206.696,294.387 204.389,294.387 204.389,301.962 211.913,301.962 211.913,300.092 
			206.696,300.092 		"/>
		<rect x="213.128" y="294.387" style="fill:#002046;" width="2.309" height="7.575"/>
		<polygon style="fill:#002046;" points="225.669,300.152 221.074,294.387 217.406,294.387 217.406,301.962 219.626,301.962 
			219.56,296.257 224.088,301.962 227.788,301.962 227.788,294.387 225.608,294.387 		"/>
		<polygon style="fill:#002046;" points="232.034,298.898 237.811,298.898 237.811,297.4 232.034,297.4 232.034,296.107 
			238.154,296.107 238.154,294.387 229.759,294.387 229.759,301.962 238.231,301.962 238.231,300.241 232.034,300.241 		"/>
		<polygon style="fill:#002046;" points="250.329,297.184 245.085,297.184 245.085,294.387 242.776,294.387 242.776,301.962 
			245.085,301.962 245.085,299.055 250.329,299.055 250.329,301.962 252.638,301.962 252.638,294.387 250.329,294.387 		"/>
		<polygon style="fill:#002046;" points="256.883,298.898 262.659,298.898 262.659,297.4 256.883,297.4 256.883,296.107 
			263.004,296.107 263.004,294.387 254.607,294.387 254.607,301.962 263.081,301.962 263.081,300.241 256.883,300.241 		"/>
		<path style="fill:#002046;" d="M274.34,296.856c0-0.565-0.066-1.021-0.199-1.365c-0.192-0.496-0.588-0.821-1.188-0.977
			c-0.33-0.085-0.871-0.128-1.626-0.128h-6.542v7.575h2.297v-1.915h3.546c0.318,0,0.54,0.01,0.666,0.028
			c0.403,0.06,0.605,0.374,0.605,0.943v0.943h2.336v-1.199c0-0.735-0.183-1.219-0.549-1.448c-0.182-0.114-0.542-0.185-1.082-0.21
			c-0.163-0.008-0.289-0.015-0.378-0.022c0.751-0.107,1.242-0.243,1.471-0.405C274.125,298.374,274.34,297.767,274.34,296.856z
			 M271.633,298.1c-0.152,0.063-0.467,0.095-0.944,0.095h-3.607v-1.948h3.69c0.511,0,0.84,0.057,0.988,0.172
			c0.174,0.133,0.26,0.44,0.26,0.922C272.021,297.739,271.892,297.992,271.633,298.1z"/>
		<polygon style="fill:#002046;" points="278.502,298.898 284.278,298.898 284.278,297.4 278.502,297.4 278.502,296.107 
			284.623,296.107 284.623,294.387 276.227,294.387 276.227,301.962 284.7,301.962 284.7,300.241 278.502,300.241 		"/>
	</g>
</g>
<g>
	<path style="fill:#002046;" d="M185.54,164.443l-7.148,21.651H169.2l23.387-68.833h10.724l23.489,68.833h-9.498l-7.354-21.651
		H185.54z M208.11,157.498l-6.74-19.813c-1.532-4.494-2.554-8.579-3.575-12.562h-0.204c-1.021,4.085-2.145,8.272-3.472,12.459
		l-6.741,19.915H208.11z"/>
</g>
<g>
	<polygon style="fill-rule:evenodd;clip-rule:evenodd;fill:#710698;" points="178.733,126.905 197.064,101.892 163.98,102.146 
		178.54,126.959 	"/>
	<polygon style="fill-rule:evenodd;clip-rule:evenodd;fill:#7944BD;" points="197.064,101.892 216.041,126.572 230.179,101.654 	"/>
	<polygon style="fill-rule:evenodd;clip-rule:evenodd;fill:#034185;" points="230.179,101.654 216.041,126.572 246.932,130.185 	"/>
	<polygon style="fill-rule:evenodd;clip-rule:evenodd;fill:#03B5DF;" points="246.932,130.185 234.862,158.751 234.945,158.961 
		263.685,158.716 	"/>
	<polygon style="fill-rule:evenodd;clip-rule:evenodd;fill:#4CAA1C;" points="263.685,158.716 234.945,158.961 247.354,187.501 	"/>
	<polygon style="fill-rule:evenodd;clip-rule:evenodd;fill:#B8FB2A;" points="247.354,187.501 216.405,191.28 216.371,191.341 
		231.021,216.286 	"/>
	<polygon style="fill-rule:evenodd;clip-rule:evenodd;fill:#F0CC26;" points="231.021,216.286 216.371,191.341 197.936,216.541 	"/>
	<polygon style="fill-rule:evenodd;clip-rule:evenodd;fill:#F13E03;" points="197.936,216.541 179.129,191.63 164.851,216.795 	"/>
	<polygon style="fill-rule:evenodd;clip-rule:evenodd;fill:#A90000;" points="164.851,216.795 179.129,191.63 148.068,188.248 	"/>
	<polygon style="fill-rule:evenodd;clip-rule:evenodd;fill:#AB0000;" points="148.068,188.248 160.242,159.495 131.316,159.716 	"/>
	<polygon style="fill-rule:evenodd;clip-rule:evenodd;fill:#E50380;" points="131.316,159.716 160.242,159.495 160.276,159.434 
		147.648,130.931 	"/>
	<polygon style="fill-rule:evenodd;clip-rule:evenodd;fill:#BE0353;" points="147.648,130.931 178.54,126.959 163.98,102.146 	"/>
	<polygon style="fill-rule:evenodd;clip-rule:evenodd;fill:#5924BD;" points="196.757,77.053 178.425,102.066 197.064,101.892 
		215.733,101.734 	"/>
	<polygon style="fill-rule:evenodd;clip-rule:evenodd;fill:#C2037B;" points="156.753,114.597 125.86,118.569 138.489,147.073 
		147.717,130.808 156.841,114.728 	"/>
	<polygon style="fill-rule:evenodd;clip-rule:evenodd;fill:#C10000;" points="148.158,188.055 138.79,172.03 138.712,172.027 
		126.538,200.779 157.6,204.161 	"/>
	
		<polygon style="fill-rule:evenodd;clip-rule:evenodd;fill:#F37B22;stroke:#FC5C06;stroke-width:0.2268;stroke-miterlimit:10;" points="
		197.964,216.493 179.326,216.667 198.132,241.578 216.566,216.378 216.555,216.331 	"/>
	<polygon style="fill-rule:evenodd;clip-rule:evenodd;fill:#8BE232;" points="247.423,187.378 238.194,203.643 269.143,199.864 
		256.735,171.324 256.546,171.298 	"/>
	<polygon style="fill-rule:evenodd;clip-rule:evenodd;fill:#0375AF;" points="246.933,130.186 256.342,146.274 268.413,117.709 
		237.522,114.096 	"/>
</g>
</svg>
